<svg width="20px" height="28px" viewBox="0 0 20 28" version="1.1">
    <g id="SVG/PlaceFinder" stroke="none" stroke-width="1" fill="none" fill-rule="evenodd">
        <g id="icons-location" fill="#FFFFFF" fill-rule="nonzero">
            <path d="M10,0 C4.486,0 0,4.41590625 0,9.84375 C0,11.6776406 0.516055556,13.4673437 1.49272222,15.0200312 L9.43077778,27.6122109 C9.58283333,27.8534375 9.85072222,28 10.1388333,28 C10.1410556,28 10.1432222,28 10.1454444,28 C10.4360556,27.9977578 10.7045,27.8466563 10.8537778,27.6012188 L18.5895,14.8870313 C19.5122778,13.3671563 20,11.6232266 20,9.84375 C20,4.41590625 15.514,0 10,0 Z M17.1592222,14.0447344 L10.1262222,25.6039219 L2.90927778,14.1556406 C2.09633333,12.8632656 1.65555556,11.3722656 1.65555556,9.84375 C1.65555556,5.32054688 5.405,1.6296875 10,1.6296875 C14.595,1.6296875 18.3388889,5.32054688 18.3388889,9.84375 C18.3388889,11.3269297 17.9271667,12.7798125 17.1592222,14.0447344 Z" id="Shape"></path>
            <path d="M10,4.921875 C7.243,4.921875 5,7.12982812 5,9.84375 C5,12.5403359 7.2065,14.765625 10,14.765625 C12.8279444,14.765625 15,12.5106953 15,9.84375 C15,7.12982812 12.757,4.921875 10,4.921875 Z M10,13.1359375 C8.15238889,13.1359375 6.65555556,11.6575703 6.65555556,9.84375 C6.65555556,8.03446875 8.162,6.5515625 10,6.5515625 C11.838,6.5515625 13.3388889,8.03446875 13.3388889,9.84375 C13.3388889,11.6311016 11.8768889,13.1359375 10,13.1359375 Z" id="Shape"></path>
        </g>
    </g>
</svg>
