<?xml version="1.0" encoding="UTF-8"?>
<svg width="24px" height="24px" viewBox="0 0 24 24" version="1.1" xmlns="http://www.w3.org/2000/svg" xmlns:xlink="http://www.w3.org/1999/xlink">
    <!-- Generator: Sketch 48.2 (47327) - http://www.bohemiancoding.com/sketch -->
    <title>Artboard 2</title>
    <desc>Created with Sketch.</desc>
    <defs></defs>
    <g id="Wireframe" stroke="none" stroke-width="1" fill="none" fill-rule="evenodd">
        <g id="Artboard-2" fill="#000000" fill-rule="nonzero">
            <g id="navigation">
                <path d="M17.7576,5.2364 L3.4532,11.8012 C3.2936,11.8748 3.2004,12.0432 3.2236,12.2176 C3.2468,12.392 3.3808,12.5304 3.554,12.5592 L9.8872,13.6204 L10.6108,19.6004 C10.6324,19.7756 10.7664,19.9168 10.9404,19.9464 C10.9632,19.9504 10.9856,19.9524 11.008,19.9524 C11.158,19.9524 11.2984,19.868 11.3664,19.73 L18.2828,5.7772 C18.358,5.6252 18.3296,5.4424 18.2116,5.3208 C18.0936,5.1992 17.9104,5.1656 17.7576,5.2364 Z M11.244,18.1752 L10.6456,13.2276 C10.624,13.0516 10.4892,12.9104 10.3144,12.8812 L4.9696,11.9856 L17.064,6.4348 L11.244,18.1752 Z" id="Shape"></path>
                <path d="M12,0 C5.3832,0 0,5.3832 0,12 C0,18.6168 5.3832,24 12,24 C18.6168,24 24,18.6168 24,12 C24,5.3832 18.6168,0 12,0 Z M12,23.2 C5.8244,23.2 0.8,18.1756 0.8,12 C0.8,5.8244 5.8244,0.8 12,0.8 C18.1756,0.8 23.2,5.8244 23.2,12 C23.2,18.1756 18.1756,23.2 12,23.2 Z" id="Shape"></path>
            </g>
        </g>
    </g>
</svg>