<?xml version="1.0" encoding="UTF-8"?>
<svg width="146px" height="247px" viewBox="0 0 146 247" version="1.1" xmlns="http://www.w3.org/2000/svg" xmlns:xlink="http://www.w3.org/1999/xlink">
    <!-- Generator: Sketch 48.2 (47327) - http://www.bohemiancoding.com/sketch -->
    <title>svg/Body</title>
    <desc>Created with Sketch.</desc>
    <defs></defs>
    <g id="Prototype/Size-Finder" stroke="none" stroke-width="1" fill="none" fill-rule="evenodd" transform="translate(-677.000000, -2026.000000)">
        <g id="Prototype-Step-1°" transform="translate(165.000000, 1911.000000)">
            <g id="svg/Body" transform="translate(512.000000, 115.000000)">
                <g id="Group-5" transform="translate(36.000000, 1.000000)">
                    <path d="M33.6667,130.4167 C33.6667,130.4167 34.6667,126.1247 35.3337,125.1247 C35.9997,124.1247 38.4997,121.5627 39.8337,125.0627 C40.6667,127.3957 41.1667,131.0317 41.4997,132.8647 C41.8337,134.6977 42.3337,141.3487 42.3337,142.6827 C42.1667,146.6827 41.3337,163.5077 45.6667,174.5077 C46.6667,177.0077 46.9997,178.8377 46.8337,180.5037 C46.8337,182.5037 46.1667,199.5017 47.6667,204.3357 C48.8337,208.3357 51.8337,219.3347 52.1667,227.1677 C52.4997,234.5007 52.1667,238.3337 52.9997,238.6677 C53.8337,239.0007 60.3337,242.1667 61.1667,243.3337 C61.9997,244.3337 64.8337,245.4997 65.6667,245.3337 C66.4997,245.1667 72.3337,244.8337 72.3337,244.8337 C72.9997,244.9997 75.3337,243.8337 73.6667,240.8337 C72.1667,239.1667 70.9997,238.6667 69.4997,237.9997 C66.3337,236.1667 59.8337,231.1667 59.4997,220.1667 C59.1667,210.9997 59.9997,185.8337 59.9997,183.8337 C59.9997,181.8337 60.8337,147.6667 60.8337,145.3337 C60.8337,142.9997 60.9997,123.6667 60.9997,123.6667 C60.9997,123.6667 61.1667,117.1667 59.1667,112.6667 C58.1667,107.4997 55.2497,93.1667 55.7497,90.3337 C56.5837,86.6667 57.4997,70.9997 57.4997,69.8337 L57.4997,65.9997 C57.4997,65.9997 58.2497,58.8337 59.4167,64.9997 C60.7497,70.9997 60.7087,72.1667 61.5417,73.9997 C62.3747,75.8337 63.9377,81.8337 63.9377,87.8337 C63.6037,90.1667 63.4687,98.3337 64.3017,100.1667 C64.9687,101.9997 66.1507,107.3337 67.4847,110.6667 C68.8177,113.9997 67.8257,116.3337 67.1587,117.4997 C66.4927,118.6667 64.8297,123.1667 64.8297,124.4997 C64.8297,125.8337 65.3317,127.6667 66.1647,126.6667 C66.9977,125.6667 69.6657,122.1667 68.9987,125.1667 C68.3327,128.1667 67.3327,134.6667 67.1667,135.4997 C66.9997,136.3337 66.1667,138.3337 67.1667,138.4997 C68.1667,138.6667 70.8337,136.3337 72.1667,133.6667 C73.4997,130.9997 74.4997,112.8337 74.8337,104.1667 C75.1667,95.4997 75.1667,82.3337 75.1667,82.3337 C75.1667,82.3337 74.9997,77.6667 72.8337,71.3337 C70.9997,63.9997 70.3337,55.4997 70.3337,54.3337 C70.3337,53.1667 69.6667,43.3337 61.9997,40.4997 C54.3337,37.6667 47.6667,35.9997 47.6667,35.9997 C47.6667,35.9997 44.9997,35.4997 44.6667,29.4997 C44.6667,27.3337 45.9997,25.4997 46.9997,23.8747 C47.9997,22.2497 48.2497,15.7497 47.1247,10.7497 C45.9997,5.7497 45.3747,1.3747 38.2497,0.7497 C31.1247,0.1247 26.6247,6.6247 25.9997,9.9997 C25.4997,13.6247 26.7497,19.6247 28.7497,22.9997 C30.1247,25.6247 33.2497,32.6247 26.4997,35.9997 C20.6247,37.8747 14.7497,39.8747 14.7497,39.8747 C14.7497,39.8747 7.9997,42.2497 5.4997,48.8747 C4.4997,51.1247 4.6247,59.4997 4.3747,60.7497 C4.2497,61.9997 2.6247,72.2497 1.1247,75.4997 C0.7497,77.1247 -0.7503,83.7497 0.7497,100.2497 C1.1247,109.8747 1.7497,128.7497 2.1247,130.2497 C2.4997,131.6247 3.3747,135.6247 5.4997,137.2497 C7.6247,138.8747 8.3747,139.7497 8.3747,138.2497 C8.3747,136.7497 7.2497,132.7497 6.9997,131.4997 C6.7497,130.2497 6.3747,126.1247 5.9997,125.4997 C5.6247,124.8747 5.7497,122.7497 6.8747,123.6247 C7.9997,124.8747 8.6247,127.3747 9.7497,127.2497 C10.3747,127.4997 10.2497,125.7497 10.2497,124.9997 C10.2497,124.2497 10.4997,121.4997 9.1247,120.1247 C7.7497,118.7497 6.1247,116.1247 7.4997,111.3747 C8.8747,106.6247 11.7497,98.7497 11.4997,94.6247 C11.2497,90.4997 10.7497,85.4997 11.9997,80.2497 C13.2497,74.9997 14.9997,68.7497 14.9997,67.3747 C14.9997,65.9997 15.9997,60.3747 16.9997,64.9997 C17.2497,68.8747 18.1247,85.3747 18.4997,87.3747 C18.8747,89.3747 18.6247,101.7497 16.6247,107.4997 C15.4997,112.1247 13.7497,117.6247 14.1247,126.6247 C14.4997,135.6247 14.3747,170.2497 14.3747,174.7497 C14.3747,179.2497 15.8747,220.4997 15.7497,221.2497 C15.6247,221.9997 14.1247,229.3747 12.9997,230.6247 C11.7497,232.2497 8.9997,236.8747 3.7497,238.7497 C0.6247,239.9997 0.7497,241.8747 1.2497,242.7497 C1.7497,243.6247 2.6277,245.3007 7.9997,245.1247 C11.8127,244.9997 13.6247,243.2497 13.6247,243.2497 L21.1247,238.8747 C21.1247,238.8747 22.6247,237.9997 22.4997,236.1247 C22.6247,233.6247 22.6247,220.3747 24.4997,215.4997 C26.2497,210.2497 30.1247,199.6247 28.3747,185.4997 C27.9997,183.2497 28.1247,178.3747 29.1247,175.6247 C30.3747,171.7497 32.6247,165.9997 32.6247,160.6247 C32.6247,155.2497 32.8747,147.3747 32.7497,145.1247 C32.6247,142.8747 33.6667,130.4167 33.6667,130.4167" id="Fill-1"></path>
                    <path d="M33.6667,130.4167 C33.6667,130.4167 34.6667,126.1247 35.3337,125.1247 C35.9997,124.1247 38.4997,121.5627 39.8337,125.0627 C40.6667,127.3957 41.1667,131.0317 41.4997,132.8647 C41.8337,134.6977 42.3337,141.3487 42.3337,142.6827 C42.1667,146.6827 41.3337,163.5077 45.6667,174.5077 C46.6667,177.0077 46.9997,178.8377 46.8337,180.5037 C46.8337,182.5037 46.1667,199.5017 47.6667,204.3357 C48.8337,208.3357 51.8337,219.3347 52.1667,227.1677 C52.4997,234.5007 52.1667,238.3337 52.9997,238.6677 C53.8337,239.0007 60.3337,242.1667 61.1667,243.3337 C61.9997,244.3337 64.8337,245.4997 65.6667,245.3337 C66.4997,245.1667 72.3337,244.8337 72.3337,244.8337 C72.9997,244.9997 75.3337,243.8337 73.6667,240.8337 C72.1667,239.1667 70.9997,238.6667 69.4997,237.9997 C66.3337,236.1667 59.8337,231.1667 59.4997,220.1667 C59.1667,210.9997 59.9997,185.8337 59.9997,183.8337 C59.9997,181.8337 60.8337,147.6667 60.8337,145.3337 C60.8337,142.9997 60.9997,123.6667 60.9997,123.6667 C60.9997,123.6667 61.1667,117.1667 59.1667,112.6667 C58.1667,107.4997 55.2497,93.1667 55.7497,90.3337 C56.5837,86.6667 57.4997,70.9997 57.4997,69.8337 L57.4997,65.9997 C57.4997,65.9997 58.2497,58.8337 59.4167,64.9997 C60.7497,70.9997 60.7087,72.1667 61.5417,73.9997 C62.3747,75.8337 63.9377,81.8337 63.9377,87.8337 C63.6037,90.1667 63.4687,98.3337 64.3017,100.1667 C64.9687,101.9997 66.1507,107.3337 67.4847,110.6667 C68.8177,113.9997 67.8257,116.3337 67.1587,117.4997 C66.4927,118.6667 64.8297,123.1667 64.8297,124.4997 C64.8297,125.8337 65.3317,127.6667 66.1647,126.6667 C66.9977,125.6667 69.6657,122.1667 68.9987,125.1667 C68.3327,128.1667 67.3327,134.6667 67.1667,135.4997 C66.9997,136.3337 66.1667,138.3337 67.1667,138.4997 C68.1667,138.6667 70.8337,136.3337 72.1667,133.6667 C73.4997,130.9997 74.4997,112.8337 74.8337,104.1667 C75.1667,95.4997 75.1667,82.3337 75.1667,82.3337 C75.1667,82.3337 74.9997,77.6667 72.8337,71.3337 C70.9997,63.9997 70.3337,55.4997 70.3337,54.3337 C70.3337,53.1667 69.6667,43.3337 61.9997,40.4997 C54.3337,37.6667 47.6667,35.9997 47.6667,35.9997 C47.6667,35.9997 44.9997,35.4997 44.6667,29.4997 C44.6667,27.3337 45.9997,25.4997 46.9997,23.8747 C47.9997,22.2497 48.2497,15.7497 47.1247,10.7497 C45.9997,5.7497 45.3747,1.3747 38.2497,0.7497 C31.1247,0.1247 26.6247,6.6247 25.9997,9.9997 C25.4997,13.6247 26.7497,19.6247 28.7497,22.9997 C30.1247,25.6247 33.2497,32.6247 26.4997,35.9997 C20.6247,37.8747 14.7497,39.8747 14.7497,39.8747 C14.7497,39.8747 7.9997,42.2497 5.4997,48.8747 C4.4997,51.1247 4.6247,59.4997 4.3747,60.7497 C4.2497,61.9997 2.6247,72.2497 1.1247,75.4997 C0.7497,77.1247 -0.7503,83.7497 0.7497,100.2497 C1.1247,109.8747 1.7497,128.7497 2.1247,130.2497 C2.4997,131.6247 3.3747,135.6247 5.4997,137.2497 C7.6247,138.8747 8.3747,139.7497 8.3747,138.2497 C8.3747,136.7497 7.2497,132.7497 6.9997,131.4997 C6.7497,130.2497 6.3747,126.1247 5.9997,125.4997 C5.6247,124.8747 5.7497,122.7497 6.8747,123.6247 C7.9997,124.8747 8.6247,127.3747 9.7497,127.2497 C10.3747,127.4997 10.2497,125.7497 10.2497,124.9997 C10.2497,124.2497 10.4997,121.4997 9.1247,120.1247 C7.7497,118.7497 6.1247,116.1247 7.4997,111.3747 C8.8747,106.6247 11.7497,98.7497 11.4997,94.6247 C11.2497,90.4997 10.7497,85.4997 11.9997,80.2497 C13.2497,74.9997 14.9997,68.7497 14.9997,67.3747 C14.9997,65.9997 15.9997,60.3747 16.9997,64.9997 C17.2497,68.8747 18.1247,85.3747 18.4997,87.3747 C18.8747,89.3747 18.6247,101.7497 16.6247,107.4997 C15.4997,112.1247 13.7497,117.6247 14.1247,126.6247 C14.4997,135.6247 14.3747,170.2497 14.3747,174.7497 C14.3747,179.2497 15.8747,220.4997 15.7497,221.2497 C15.6247,221.9997 14.1247,229.3747 12.9997,230.6247 C11.7497,232.2497 8.9997,236.8747 3.7497,238.7497 C0.6247,239.9997 0.7497,241.8747 1.2497,242.7497 C1.7497,243.6247 2.6277,245.3007 7.9997,245.1247 C11.8127,244.9997 13.6247,243.2497 13.6247,243.2497 L21.1247,238.8747 C21.1247,238.8747 22.6247,237.9997 22.4997,236.1247 C22.6247,233.6247 22.6247,220.3747 24.4997,215.4997 C26.2497,210.2497 30.1247,199.6247 28.3747,185.4997 C27.9997,183.2497 28.1247,178.3747 29.1247,175.6247 C30.3747,171.7497 32.6247,165.9997 32.6247,160.6247 C32.6247,155.2497 32.8747,147.3747 32.7497,145.1247 C32.6247,142.8747 33.6667,130.4167 33.6667,130.4167 Z" id="Stroke-3" stroke="#FFFFFF"></path>
                </g>
                <polygon id="Fill-6" fill="#FFFFFF" points="0 247 2 247 2 0 0 0"></polygon>
                <polygon id="Fill-7" fill="#FFFFFF" points="1 1 146 1 146 0 1 0"></polygon>
                <polygon id="Fill-8" fill="#FFFFFF" points="0 247 145 247 145 246 0 246"></polygon>
            </g>
        </g>
    </g>
</svg>